<?xml version="1.0" encoding="utf-8"?>
<!-- Generator: Adobe Illustrator 27.5.0, SVG Export Plug-In . SVG Version: 6.00 Build 0)  -->
<svg version="1.1" id="Layer_1" xmlns="http://www.w3.org/2000/svg" xmlns:xlink="http://www.w3.org/1999/xlink" x="0px" y="0px"
	 viewBox="0 0 32.8 32.8" style="enable-background:new 0 0 32.8 32.8;" xml:space="preserve">
<style type="text/css">
	.st0{fill:#FFFFFF;}
	.st1{fill:none;stroke:#FFFFFF;stroke-width:1.152;stroke-miterlimit:10;}
</style>
<g id="Group_510" transform="translate(-903.424 -6343.814)">
	<path id="Path_4447" class="st0" d="M925.7,6365l0.7-4.6H922v-3c-0.1-1.3,0.8-2.4,2.1-2.5c0.2,0,0.3,0,0.5,0h2v-3.9
		c-1.2-0.2-2.4-0.3-3.5-0.3c-3.6,0-6,2.2-6,6.2v3.5h-4v4.6h4v11.1c1.6,0.3,3.3,0.3,4.9,0V6365H925.7z"/>
	<path id="Path_4448" class="st1" d="M935.6,6360.3c-0.1,8.7-7.2,15.7-16,15.7c-8.7-0.1-15.7-7.2-15.7-16
		c0.1-8.7,7.1-15.7,15.8-15.7C928.6,6344.4,935.7,6351.6,935.6,6360.3z"/>
</g>
</svg>
