<?xml version="1.0" encoding="utf-8"?>
<!-- Generator: Adobe Illustrator 27.5.0, SVG Export Plug-In . SVG Version: 6.00 Build 0)  -->
<svg version="1.1" id="Layer_1" xmlns="http://www.w3.org/2000/svg" xmlns:xlink="http://www.w3.org/1999/xlink" x="0px" y="0px"
	 viewBox="0 0 32.8 32.8" style="enable-background:new 0 0 32.8 32.8;" xml:space="preserve">
<style type="text/css">
	.st0{fill:none;stroke:#FFFFFF;stroke-width:1.152;stroke-miterlimit:10;}
	.st1{fill:#FFFFFF;}
</style>
<g id="Group_523" transform="translate(509.532 -7140.871)">
	<g id="Group_522">
		<g id="Group_521">
			<g id="Group_520">
				<g id="Group_519">
					<path id="Path_4441" class="st0" d="M-478.6,7157.4c-0.1,8-6.6,14.5-14.7,14.4s-14.5-6.6-14.4-14.7c0.1-8,6.6-14.4,14.5-14.4
						C-485.1,7142.8-478.6,7149.3-478.6,7157.4C-478.6,7157.4-478.6,7157.4-478.6,7157.4z"/>
					<path id="Path_4442" class="st1" d="M-488.6,7151.8c-0.6,0-1,0.4-1,1s0.4,1,1,1c0.6,0,1-0.4,1-1c0,0,0,0,0,0
						C-487.6,7152.3-488.1,7151.8-488.6,7151.8C-488.6,7151.8-488.6,7151.8-488.6,7151.8"/>
					<path id="Path_4443" class="st1" d="M-493.1,7153.1c-2.3,0-4.3,1.9-4.3,4.2c0,2.3,1.9,4.3,4.2,4.3c2.3,0,4.3-1.9,4.3-4.2
						c0,0,0,0,0,0C-488.9,7155-490.7,7153.1-493.1,7153.1 M-493.1,7160.1c-1.5,0-2.7-1.2-2.7-2.7s1.2-2.7,2.7-2.7s2.7,1.2,2.7,2.7
						c0,0,0,0,0,0C-490.4,7158.9-491.6,7160.1-493.1,7160.1"/>
					<path id="Path_4444" class="st1" d="M-489.7,7166h-6.8c-2.8,0-5.1-2.3-5.1-5.2v-6.9c0-2.8,2.3-5.1,5.1-5.2h6.8
						c2.8,0,5.1,2.3,5.1,5.2v6.9C-484.6,7163.6-486.9,7166-489.7,7166 M-496.5,7150.4c-1.9,0-3.5,1.6-3.5,3.5v6.9
						c0,1.9,1.6,3.5,3.5,3.5h6.8c1.9,0,3.5-1.6,3.5-3.5v-6.9c0-1.9-1.6-3.5-3.5-3.5H-496.5z"/>
				</g>
			</g>
		</g>
	</g>
</g>
</svg>
